<svg id="Layer_1" data-name="Layer 1" xmlns="http://www.w3.org/2000/svg" viewBox="0 0 500.88 223.75"><defs><style>.cls-1{fill:#f9a11b;}.cls-2{fill:#231f20;}</style></defs><title>elev8x_logo3</title><path class="cls-1" d="M500.85,366.53a52.22,52.22,0,0,1-52.16-52.15c0-10.89,5.22-22.19,15.91-34.35q3.09-3.51,6.78-7.12c.74-.72,1.47-1.42,2.2-2.1a175.46,175.46,0,0,1,17.5-14.4l9.77-6.85c1.71-1.48,3.52-3.12,5.33-4.87q2.31-2.24,4.12-4.22c6.81-7.43,8.59-12,8.66-13.23a18.11,18.11,0,0,0-36.22,0c.06,1.26,1.83,5.81,8.66,13.25l-7.7,5.4a188.72,188.72,0,0,0-19.1,15.72c-10.69-12.16-15.91-23.46-15.91-34.35a52.16,52.16,0,0,1,104.31,0c0,10.89-5.22,22.19-15.91,34.35-2.05,2.34-4.32,4.71-6.78,7.12-.73.71-1.47,1.42-2.2,2.1a174.18,174.18,0,0,1-17.5,14.4l-9.76,6.85c-1.81,1.56-3.72,3.29-5.62,5.15-1.42,1.39-2.7,2.71-3.83,3.94-6.83,7.44-8.6,12-8.66,13.25a18.11,18.11,0,0,0,36.22,0c-.07-1.25-1.85-5.8-8.66-13.23l7.7-5.4A190.88,190.88,0,0,0,537.09,280C547.78,292.19,553,303.49,553,314.38A52.21,52.21,0,0,1,500.85,366.53Z" transform="translate(-132.54 -175.09)"/><path class="cls-2" d="M212.91,362.75H150.13q.75,9.84,7.31,15.81a23.08,23.08,0,0,0,16.1,6q13.72,0,19.39-11.48h18.34a37.1,37.1,0,0,1-13.49,18.56q-9.78,7.25-24.24,7.24a42,42,0,0,1-21.1-5.3,37.7,37.7,0,0,1-14.61-14.91,45.46,45.46,0,0,1-5.29-22.29,46.6,46.6,0,0,1,5.14-22.3,36.15,36.15,0,0,1,14.47-14.83A43,43,0,0,1,173.54,314a41.83,41.83,0,0,1,20.73,5.07,35.88,35.88,0,0,1,14.17,14.24,43,43,0,0,1,5.07,21.1A52.8,52.8,0,0,1,212.91,362.75ZM195.76,349q-.15-9.39-6.71-15.06T172.8,328.3a21.81,21.81,0,0,0-15.06,5.6q-6.27,5.58-7.46,15.13Z" transform="translate(-132.54 -175.09)"/><path class="cls-2" d="M247.2,288.49V398.84h-17V288.49Z" transform="translate(-132.54 -175.09)"/><path class="cls-2" d="M344.28,362.75H281.5q.75,9.84,7.31,15.81a23.08,23.08,0,0,0,16.1,6q13.72,0,19.39-11.48h18.34a37.06,37.06,0,0,1-13.5,18.56q-9.76,7.25-24.23,7.24a42,42,0,0,1-21.1-5.3,37.7,37.7,0,0,1-14.61-14.91,45.46,45.46,0,0,1-5.3-22.29,46.61,46.61,0,0,1,5.15-22.3,36.19,36.19,0,0,1,14.46-14.83,43,43,0,0,1,21.4-5.22,41.88,41.88,0,0,1,20.73,5.07A35.86,35.86,0,0,1,339.8,333.3a42.89,42.89,0,0,1,5.07,21.1A54.09,54.09,0,0,1,344.28,362.75ZM327.13,349q-.15-9.39-6.71-15.06t-16.26-5.67a21.85,21.85,0,0,0-15.06,5.6q-6.25,5.58-7.45,15.13Z" transform="translate(-132.54 -175.09)"/><path class="cls-2" d="M394,383.63l23.26-67h18L404,398.84H383.68l-31.16-82.17h18.19Z" transform="translate(-132.54 -175.09)"/><path class="cls-2" d="M606.87,357.23l26.55,41.61H614.18L596.44,371l-16.7,27.89H562l26.54-40.41L562,316.67h19.24L599,344.56l16.7-27.89h17.75Z" transform="translate(-132.54 -175.09)"/></svg>